<svg width="2077" height="428" viewBox="0 0 2077 428" fill="none" xmlns="http://www.w3.org/2000/svg">
<line y1="125.5" x2="2077" y2="125.5" stroke="#10974B" stroke-width="5"/>
<line x1="287.5" y1="1.09278e-07" x2="287.5" y2="428" stroke="#10974B" stroke-width="5"/>
<line x1="1107.5" y1="1.09278e-07" x2="1107.5" y2="428" stroke="#10974B" stroke-width="5"/>
<line y1="269.5" x2="2077" y2="269.5" stroke="#10974B" stroke-width="5"/>
<rect x="2.5" y="2.5" width="2072" height="423" stroke="#10974B" stroke-width="5"/>
<path d="M1420.51 382.541C1420.51 379.801 1421.42 377.577 1423.25 375.869C1425.11 374.161 1427.44 373.308 1430.22 373.308C1433.04 373.308 1435.36 374.161 1437.19 375.869C1439.05 377.577 1439.99 379.801 1439.99 382.541C1439.99 385.242 1439.07 387.446 1437.25 389.153C1435.42 390.821 1433.08 391.655 1430.22 391.655C1427.4 391.655 1425.07 390.821 1423.25 389.153C1421.42 387.446 1420.51 385.242 1420.51 382.541ZM1554.72 362.108C1554.04 371.441 1550.59 378.788 1544.35 384.149C1538.16 389.511 1529.98 392.191 1519.81 392.191C1508.69 392.191 1499.93 388.458 1493.54 380.992C1487.18 373.486 1484.01 363.201 1484.01 350.135V344.833C1484.01 336.493 1485.48 329.146 1488.42 322.792C1491.35 316.438 1495.54 311.573 1500.99 308.197C1506.47 304.782 1512.82 303.074 1520.05 303.074C1530.06 303.074 1538.12 305.755 1544.23 311.116C1550.35 316.478 1553.88 324.003 1554.84 333.693H1536.97C1536.53 328.094 1534.96 324.043 1532.26 321.541C1529.6 318.999 1525.53 317.729 1520.05 317.729C1514.09 317.729 1509.62 319.873 1506.64 324.162C1503.71 328.411 1502.2 335.024 1502.12 343.999V350.552C1502.12 359.924 1503.53 366.775 1506.35 371.104C1509.21 375.432 1513.69 377.597 1519.81 377.597C1525.33 377.597 1529.44 376.346 1532.14 373.844C1534.88 371.302 1536.45 367.39 1536.85 362.108H1554.72ZM1611.43 368.244C1611.43 364.868 1610.24 362.287 1607.85 360.5C1605.47 358.673 1601.18 356.767 1594.99 354.781C1588.79 352.756 1583.89 350.77 1580.27 348.824C1570.42 343.503 1565.5 336.334 1565.5 327.319C1565.5 322.633 1566.81 318.463 1569.43 314.81C1572.09 311.116 1575.89 308.237 1580.81 306.172C1585.77 304.107 1591.33 303.074 1597.49 303.074C1603.68 303.074 1609.2 304.206 1614.05 306.47C1618.89 308.694 1622.65 311.851 1625.31 315.941C1628.01 320.032 1629.36 324.678 1629.36 329.881H1611.49C1611.49 325.91 1610.24 322.832 1607.74 320.647C1605.23 318.424 1601.72 317.312 1597.19 317.312C1592.82 317.312 1589.43 318.245 1587 320.111C1584.58 321.938 1583.37 324.361 1583.37 327.379C1583.37 330.199 1584.78 332.562 1587.6 334.468C1590.46 336.374 1594.65 338.161 1600.17 339.829C1610.34 342.887 1617.74 346.68 1622.39 351.207C1627.04 355.734 1629.36 361.374 1629.36 368.125C1629.36 375.631 1626.52 381.528 1620.84 385.817C1615.16 390.067 1607.52 392.191 1597.91 392.191C1591.23 392.191 1585.16 390.98 1579.68 388.558C1574.2 386.095 1570.01 382.74 1567.11 378.49C1564.25 374.241 1562.82 369.316 1562.82 363.717H1580.75C1580.75 373.288 1586.47 378.073 1597.91 378.073C1602.16 378.073 1605.47 377.219 1607.85 375.512C1610.24 373.764 1611.43 371.342 1611.43 368.244ZM1673.56 369.495L1693.22 304.266H1713.12L1682.91 391H1664.27L1634.18 304.266H1654.02L1673.56 369.495Z" fill="#10974B"/>
</svg>
